<svg width="72" height="20" viewBox="0 0 72 20" fill="none" xmlns="http://www.w3.org/2000/svg">
<path fill-rule="evenodd" clip-rule="evenodd" d="M44.63 0L49.76 11.66L55.33 0H58.25L48.23 20H45.43L48.31 14.54L41.7 0H44.63ZM64.74 0L72 14.54H69.07L63.72 3.31L60.36 10.41H65.27L66.07 12.33H59.43L58.38 14.54H55.45L62.71 0H64.74ZM9.29 0L16.55 14.54H13.63L8.28 3.31L4.91 10.41H9.82L10.62 12.33H3.99L2.93 14.54H0L7.26 0H9.29ZM36.91 0L44.17 14.54H41.24L35.9 3.31L32.53 10.41H37.45L38.24 12.33H31.61L30.55 14.54H27.62L34.88 0H36.91ZM16.74 0L22.09 11.44L27.44 0H30.37L23.11 14.54H21.08L13.82 0H16.74Z" fill="#DA291C"/>
</svg>
