<svg width="245" height="58" viewBox="0 0 245 58" fill="none" xmlns="http://www.w3.org/2000/svg">
<rect width="245" height="58" fill="white"/>
<path d="M0 0H104.759L134 58H0V0Z" fill="#DA291C"/>
<path d="M87.9347 34.2534H95.8694L97.1623 37.2799H86.448L84.735 40.7635H80L91.7324 17.8442H95.0129L106.745 40.7635H102.027L93.3807 23.0617L87.9347 34.2534Z" fill="white"/>
<g clip-path="url(#clip0)">
<path d="M165.653 32.657C165.653 27.805 168.989 24.0649 173.437 24.0649C177.985 24.0649 180.917 27.805 180.917 32.657C180.917 32.9602 180.917 33.0613 180.917 33.2635H167.372C167.675 37.3068 170.606 39.7328 173.841 39.7328C176.368 39.7328 178.087 38.6209 179.502 37.2057L180.614 38.2166C178.895 40.0361 176.975 41.3501 173.841 41.3501C169.393 41.2491 165.653 37.8122 165.653 32.657ZM179.198 31.8483C178.996 28.5126 177.076 25.4801 173.336 25.4801C170.101 25.4801 167.574 28.2093 167.271 31.8483H179.198Z" fill="black"/>
<path d="M184.151 38.722L185.061 37.509C186.881 38.9242 188.902 39.6317 190.924 39.6317C193.148 39.6317 194.866 38.4187 194.866 36.4982V36.3971C194.866 34.4765 192.845 33.7689 190.52 33.1624C187.891 32.3538 184.859 31.5451 184.859 28.6137V28.5126C184.859 25.8844 187.083 23.9639 190.216 23.9639C192.137 23.9639 194.361 24.6714 196.079 25.7834L195.271 27.0974C193.754 26.0866 191.935 25.4801 190.216 25.4801C187.993 25.4801 186.476 26.6931 186.476 28.3104V28.4115C186.476 30.231 188.7 30.9386 191.025 31.5451C193.653 32.2527 196.382 33.2635 196.382 36.0938V36.1949C196.382 39.1263 193.855 40.9458 190.722 40.9458C188.498 41.148 185.87 40.1371 184.151 38.722Z" fill="black"/>
<path d="M201.538 18H203.458V20.1227H201.538V18ZM201.74 24.4693H203.357V40.8448H201.74V24.4693Z" fill="black"/>
<path d="M209.22 43.4729L210.13 42.1588C212.051 43.675 214.376 44.4837 216.802 44.4837C220.542 44.4837 223.271 42.361 223.271 38.1155V35.6895C221.856 37.7112 219.632 39.5306 216.397 39.5306C212.455 39.5306 208.513 36.4982 208.513 31.8483V31.7473C208.513 27.0974 212.354 24.0649 216.296 24.0649C219.531 24.0649 221.755 25.7834 223.17 27.7039V24.4693H224.787V38.3176C224.787 40.7436 223.978 42.5631 222.664 43.8772C221.249 45.2924 219.126 46.101 216.7 46.101C213.971 46 211.444 45.1913 209.22 43.4729ZM223.271 31.8483C223.271 28.0072 219.935 25.5812 216.498 25.5812C213.061 25.5812 210.13 28.0072 210.13 31.7473V31.8483C210.13 35.5884 213.061 38.1155 216.498 38.1155C219.935 38.1155 223.271 35.5884 223.271 31.8483Z" fill="black"/>
<path d="M230.751 24.4693H232.368V27.5018C233.379 25.5812 235.199 24.0649 238.231 24.0649C242.376 24.0649 244.802 26.8953 244.802 30.8375V40.8447H243.184V31.1408C243.184 27.805 241.264 25.5812 237.928 25.5812C234.693 25.5812 232.267 28.0072 232.267 31.444V40.9458H230.65V24.4693H230.751Z" fill="black"/>
<path d="M142.585 18.8456L142.231 19.4585L160.356 29.9143L160.71 29.3014L142.585 18.8456Z" fill="black"/>
<path d="M160.353 29.321L142.233 39.7852L142.587 40.3979L160.707 29.9337L160.353 29.321Z" fill="black"/>
<path d="M150.592 19.1118H149.783V40.036H150.592V19.1118Z" fill="black"/>
<path d="M150.087 40.8447H142V18.3032H150.087C156.354 18.3032 161.408 23.3574 161.408 29.6245C161.408 35.8917 156.354 40.8447 150.087 40.8447ZM143.617 39.2274H150.087C155.444 39.2274 159.791 34.8808 159.791 29.5234C159.791 24.166 155.444 19.9206 150.087 19.9206H143.617V39.2274Z" fill="black"/>
</g>
<defs>
<clipPath id="clip0">
<rect width="102.801" height="28" fill="white" transform="translate(142 18)"/>
</clipPath>
</defs>
</svg>
