<svg viewBox="0 0 1440 576" fill="none" xmlns="http://www.w3.org/2000/svg">
<g clip-path="url(#clip0)">
<rect width="1440" height="576" fill="#0B3363"/>
<path d="M36.8713 35.9356C36.8713 37.0047 36.0047 37.8713 34.9356 37.8713C33.8666 37.8713 33 37.0047 33 35.9356C33 34.8666 33.8666 34 34.9356 34C36.0047 34 36.8713 34.8666 36.8713 35.9356Z" fill="#125AB3"/>
<path d="M85.2624 35.9356C85.2624 37.0047 84.3958 37.8713 83.3267 37.8713C82.2577 37.8713 81.3911 37.0047 81.3911 35.9356C81.3911 34.8666 82.2577 34 83.3267 34C84.3958 34 85.2624 34.8666 85.2624 35.9356Z" fill="#125AB3"/>
<path d="M133.653 35.9356C133.653 37.0047 132.787 37.8713 131.718 37.8713C130.649 37.8713 129.782 37.0047 129.782 35.9356C129.782 34.8666 130.649 34 131.718 34C132.787 34 133.653 34.8666 133.653 35.9356Z" fill="#125AB3"/>
<path d="M182.045 35.9356C182.045 37.0047 181.178 37.8713 180.109 37.8713C179.04 37.8713 178.173 37.0047 178.173 35.9356C178.173 34.8666 179.04 34 180.109 34C181.178 34 182.045 34.8666 182.045 35.9356Z" fill="#125AB3"/>
<path d="M230.436 35.9356C230.436 37.0047 229.569 37.8713 228.5 37.8713C227.431 37.8713 226.564 37.0047 226.564 35.9356C226.564 34.8666 227.431 34 228.5 34C229.569 34 230.436 34.8666 230.436 35.9356Z" fill="#125AB3"/>
<path d="M278.827 35.9356C278.827 37.0047 277.96 37.8713 276.891 37.8713C275.822 37.8713 274.955 37.0047 274.955 35.9356C274.955 34.8666 275.822 34 276.891 34C277.96 34 278.827 34.8666 278.827 35.9356Z" fill="#125AB3"/>
<path d="M327.218 35.9356C327.218 37.0047 326.351 37.8713 325.282 37.8713C324.213 37.8713 323.347 37.0047 323.347 35.9356C323.347 34.8666 324.213 34 325.282 34C326.351 34 327.218 34.8666 327.218 35.9356Z" fill="#125AB3"/>
<path d="M230.436 35.9356C230.436 37.0047 229.569 37.8713 228.5 37.8713C227.431 37.8713 226.564 37.0047 226.564 35.9356C226.564 34.8666 227.431 34 228.5 34C229.569 34 230.436 34.8666 230.436 35.9356Z" fill="#125AB3"/>
<path d="M424 35.9356C424 37.0047 423.133 37.8713 422.064 37.8713C420.995 37.8713 420.129 37.0047 420.129 35.9356C420.129 34.8666 420.995 34 422.064 34C423.133 34 424 34.8666 424 35.9356Z" fill="#125AB3"/>
<path d="M36.8713 78.5198C36.8713 79.5888 36.0047 80.4554 34.9356 80.4554C33.8666 80.4554 33 79.5888 33 78.5198C33 77.4508 33.8666 76.5842 34.9356 76.5842C36.0047 76.5842 36.8713 77.4508 36.8713 78.5198Z" fill="#125AB3"/>
<path d="M85.2624 78.5199C85.2624 79.5889 84.3958 80.4555 83.3267 80.4555C82.2577 80.4555 81.3911 79.5889 81.3911 78.5199C81.3911 77.4508 82.2577 76.5842 83.3267 76.5842C84.3958 76.5842 85.2624 77.4508 85.2624 78.5199Z" fill="#125AB3"/>
<path d="M133.653 78.5199C133.653 79.5889 132.787 80.4555 131.718 80.4555C130.649 80.4555 129.782 79.5889 129.782 78.5199C129.782 77.4508 130.649 76.5842 131.718 76.5842C132.787 76.5842 133.653 77.4508 133.653 78.5199Z" fill="#125AB3"/>
<path d="M182.045 78.5199C182.045 79.5889 181.178 80.4555 180.109 80.4555C179.04 80.4555 178.173 79.5889 178.173 78.5199C178.173 77.4508 179.04 76.5842 180.109 76.5842C181.178 76.5842 182.045 77.4508 182.045 78.5199Z" fill="#125AB3"/>
<path d="M230.436 78.5199C230.436 79.5889 229.569 80.4555 228.5 80.4555C227.431 80.4555 226.564 79.5889 226.564 78.5199C226.564 77.4508 227.431 76.5842 228.5 76.5842C229.569 76.5842 230.436 77.4508 230.436 78.5199Z" fill="#125AB3"/>
<path d="M278.827 78.5199C278.827 79.5889 277.96 80.4555 276.891 80.4555C275.822 80.4555 274.955 79.5889 274.955 78.5199C274.955 77.4508 275.822 76.5842 276.891 76.5842C277.96 76.5842 278.827 77.4508 278.827 78.5199Z" fill="#125AB3"/>
<path d="M327.218 78.5199C327.218 79.5889 326.351 80.4555 325.282 80.4555C324.213 80.4555 323.347 79.5889 323.347 78.5199C323.347 77.4508 324.213 76.5842 325.282 76.5842C326.351 76.5842 327.218 77.4508 327.218 78.5199Z" fill="#125AB3"/>
<path d="M375.609 78.5198C375.609 79.5888 374.742 80.4554 373.673 80.4554C372.604 80.4554 371.738 79.5888 371.738 78.5198C371.738 77.4508 372.604 76.5842 373.673 76.5842C374.742 76.5842 375.609 77.4508 375.609 78.5198Z" fill="#125AB3"/>
<path d="M375.609 35.9357C375.609 37.0047 374.742 37.8713 373.673 37.8713C372.604 37.8713 371.738 37.0047 371.738 35.9357C371.738 34.8667 372.604 34.0001 373.673 34.0001C374.742 34.0001 375.609 34.8667 375.609 35.9357Z" fill="#125AB3"/>
<path d="M424 78.5199C424 79.5889 423.133 80.4555 422.064 80.4555C420.995 80.4555 420.129 79.5889 420.129 78.5199C420.129 77.4508 420.995 76.5842 422.064 76.5842C423.133 76.5842 424 77.4508 424 78.5199Z" fill="#125AB3"/>
<path d="M36.8713 121.104C36.8713 122.173 36.0047 123.04 34.9356 123.04C33.8666 123.04 33 122.173 33 121.104C33 120.035 33.8666 119.168 34.9356 119.168C36.0047 119.168 36.8713 120.035 36.8713 121.104Z" fill="#125AB3"/>
<path d="M85.2624 121.104C85.2624 122.173 84.3958 123.04 83.3267 123.04C82.2577 123.04 81.3911 122.173 81.3911 121.104C81.3911 120.035 82.2577 119.168 83.3267 119.168C84.3958 119.168 85.2624 120.035 85.2624 121.104Z" fill="#125AB3"/>
<path d="M182.045 121.104C182.045 122.173 181.178 123.04 180.109 123.04C179.04 123.04 178.173 122.173 178.173 121.104C178.173 120.035 179.04 119.168 180.109 119.168C181.178 119.168 182.045 120.035 182.045 121.104Z" fill="#125AB3"/>
<path d="M230.436 121.104C230.436 122.173 229.569 123.04 228.5 123.04C227.431 123.04 226.564 122.173 226.564 121.104C226.564 120.035 227.431 119.168 228.5 119.168C229.569 119.168 230.436 120.035 230.436 121.104Z" fill="#125AB3"/>
<path d="M278.827 121.104C278.827 122.173 277.96 123.04 276.891 123.04C275.822 123.04 274.955 122.173 274.955 121.104C274.955 120.035 275.822 119.168 276.891 119.168C277.96 119.168 278.827 120.035 278.827 121.104Z" fill="#125AB3"/>
<path d="M375.609 121.104C375.609 122.173 374.742 123.04 373.673 123.04C372.604 123.04 371.738 122.173 371.738 121.104C371.738 120.035 372.604 119.168 373.673 119.168C374.742 119.168 375.609 120.035 375.609 121.104Z" fill="#125AB3"/>
<path d="M424 121.104C424 122.173 423.133 123.04 422.064 123.04C420.995 123.04 420.129 122.173 420.129 121.104C420.129 120.035 420.995 119.168 422.064 119.168C423.133 119.168 424 120.035 424 121.104Z" fill="#125AB3"/>
<path d="M36.8713 163.688C36.8713 164.757 36.0047 165.624 34.9356 165.624C33.8666 165.624 33 164.757 33 163.688C33 162.619 33.8666 161.752 34.9356 161.752C36.0047 161.752 36.8713 162.619 36.8713 163.688Z" fill="#125AB3"/>
<path d="M85.2624 163.688C85.2624 164.757 84.3958 165.624 83.3267 165.624C82.2577 165.624 81.3911 164.757 81.3911 163.688C81.3911 162.619 82.2577 161.753 83.3267 161.753C84.3958 161.753 85.2624 162.619 85.2624 163.688Z" fill="#125AB3"/>
<path d="M182.045 163.688C182.045 164.757 181.178 165.624 180.109 165.624C179.04 165.624 178.173 164.757 178.173 163.688C178.173 162.619 179.04 161.753 180.109 161.753C181.178 161.753 182.045 162.619 182.045 163.688Z" fill="#125AB3"/>
<path d="M230.436 163.688C230.436 164.757 229.569 165.624 228.5 165.624C227.431 165.624 226.564 164.757 226.564 163.688C226.564 162.619 227.431 161.753 228.5 161.753C229.569 161.753 230.436 162.619 230.436 163.688Z" fill="#125AB3"/>
<path d="M278.827 163.688C278.827 164.757 277.96 165.624 276.891 165.624C275.822 165.624 274.955 164.757 274.955 163.688C274.955 162.619 275.822 161.753 276.891 161.753C277.96 161.753 278.827 162.619 278.827 163.688Z" fill="#125AB3"/>
<path d="M375.609 163.688C375.609 164.757 374.742 165.624 373.673 165.624C372.604 165.624 371.738 164.757 371.738 163.688C371.738 162.619 372.604 161.753 373.673 161.753C374.742 161.753 375.609 162.619 375.609 163.688Z" fill="#125AB3"/>
<path d="M424 163.688C424 164.757 423.133 165.624 422.064 165.624C420.995 165.624 420.129 164.757 420.129 163.688C420.129 162.619 420.995 161.753 422.064 161.753C423.133 161.753 424 162.619 424 163.688Z" fill="#125AB3"/>
<path d="M36.8713 206.272C36.8713 207.341 36.0047 208.208 34.9356 208.208C33.8666 208.208 33 207.341 33 206.272C33 205.203 33.8666 204.337 34.9356 204.337C36.0047 204.337 36.8713 205.203 36.8713 206.272Z" fill="#125AB3"/>
<path d="M85.2624 206.272C85.2624 207.341 84.3958 208.208 83.3267 208.208C82.2577 208.208 81.3911 207.341 81.3911 206.272C81.3911 205.203 82.2577 204.337 83.3267 204.337C84.3958 204.337 85.2624 205.203 85.2624 206.272Z" fill="#125AB3"/>
<path d="M133.653 206.272C133.653 207.341 132.787 208.208 131.718 208.208C130.649 208.208 129.782 207.341 129.782 206.272C129.782 205.203 130.649 204.337 131.718 204.337C132.787 204.337 133.653 205.203 133.653 206.272Z" fill="#125AB3"/>
<path d="M182.045 206.272C182.045 207.341 181.178 208.208 180.109 208.208C179.04 208.208 178.173 207.341 178.173 206.272C178.173 205.203 179.04 204.337 180.109 204.337C181.178 204.337 182.045 205.203 182.045 206.272Z" fill="#125AB3"/>
<path d="M230.436 206.272C230.436 207.341 229.569 208.208 228.5 208.208C227.431 208.208 226.564 207.341 226.564 206.272C226.564 205.203 227.431 204.337 228.5 204.337C229.569 204.337 230.436 205.203 230.436 206.272Z" fill="#125AB3"/>
<path d="M278.827 206.272C278.827 207.341 277.96 208.208 276.891 208.208C275.822 208.208 274.955 207.341 274.955 206.272C274.955 205.203 275.822 204.337 276.891 204.337C277.96 204.337 278.827 205.203 278.827 206.272Z" fill="#125AB3"/>
<path d="M327.218 206.272C327.218 207.341 326.351 208.208 325.282 208.208C324.213 208.208 323.346 207.341 323.346 206.272C323.346 205.203 324.213 204.337 325.282 204.337C326.351 204.337 327.218 205.203 327.218 206.272Z" fill="#125AB3"/>
<path d="M327.218 163.936C327.218 165.005 326.351 165.871 325.282 165.871C324.213 165.871 323.346 165.005 323.346 163.936C323.346 162.867 324.213 162 325.282 162C326.351 162 327.218 162.867 327.218 163.936Z" fill="#125AB3"/>
<path d="M327.218 121.599C327.218 122.668 326.351 123.535 325.282 123.535C324.213 123.535 323.346 122.668 323.346 121.599C323.346 120.53 324.213 119.663 325.282 119.663C326.351 119.663 327.218 120.53 327.218 121.599Z" fill="#125AB3"/>
<path d="M375.609 206.272C375.609 207.341 374.742 208.208 373.673 208.208C372.604 208.208 371.738 207.341 371.738 206.272C371.738 205.203 372.604 204.337 373.673 204.337C374.742 204.337 375.609 205.203 375.609 206.272Z" fill="#125AB3"/>
<path d="M424 206.272C424 207.341 423.133 208.208 422.064 208.208C420.995 208.208 420.129 207.341 420.129 206.272C420.129 205.203 420.995 204.337 422.064 204.337C423.133 204.337 424 205.203 424 206.272Z" fill="#125AB3"/>
<path d="M36.8713 248.856C36.8713 249.925 36.0047 250.792 34.9356 250.792C33.8666 250.792 33 249.925 33 248.856C33 247.787 33.8666 246.921 34.9356 246.921C36.0047 246.921 36.8713 247.787 36.8713 248.856Z" fill="#125AB3"/>
<path d="M85.2624 248.856C85.2624 249.925 84.3958 250.792 83.3267 250.792C82.2577 250.792 81.3911 249.925 81.3911 248.856C81.3911 247.787 82.2577 246.921 83.3267 246.921C84.3958 246.921 85.2624 247.787 85.2624 248.856Z" fill="#125AB3"/>
<path d="M133.653 248.856C133.653 249.925 132.787 250.792 131.718 250.792C130.649 250.792 129.782 249.925 129.782 248.856C129.782 247.787 130.649 246.921 131.718 246.921C132.787 246.921 133.653 247.787 133.653 248.856Z" fill="#125AB3"/>
<path d="M182.045 248.856C182.045 249.925 181.178 250.792 180.109 250.792C179.04 250.792 178.173 249.925 178.173 248.856C178.173 247.787 179.04 246.921 180.109 246.921C181.178 246.921 182.045 247.787 182.045 248.856Z" fill="#125AB3"/>
<path d="M230.436 248.856C230.436 249.925 229.569 250.792 228.5 250.792C227.431 250.792 226.564 249.925 226.564 248.856C226.564 247.787 227.431 246.921 228.5 246.921C229.569 246.921 230.436 247.787 230.436 248.856Z" fill="#125AB3"/>
<path d="M278.827 248.856C278.827 249.925 277.96 250.792 276.891 250.792C275.822 250.792 274.955 249.925 274.955 248.856C274.955 247.787 275.822 246.921 276.891 246.921C277.96 246.921 278.827 247.787 278.827 248.856Z" fill="#125AB3"/>
<path d="M327.218 248.856C327.218 249.925 326.351 250.792 325.282 250.792C324.213 250.792 323.347 249.925 323.347 248.856C323.347 247.787 324.213 246.921 325.282 246.921C326.351 246.921 327.218 247.787 327.218 248.856Z" fill="#125AB3"/>
<path d="M375.609 248.856C375.609 249.925 374.742 250.792 373.673 250.792C372.604 250.792 371.738 249.925 371.738 248.856C371.738 247.787 372.604 246.921 373.673 246.921C374.742 246.921 375.609 247.787 375.609 248.856Z" fill="#125AB3"/>
<path d="M424 248.856C424 249.925 423.133 250.792 422.064 250.792C420.995 250.792 420.129 249.925 420.129 248.856C420.129 247.787 420.995 246.921 422.064 246.921C423.133 246.921 424 247.787 424 248.856Z" fill="#125AB3"/>
<path d="M911.871 431.936C911.871 433.005 911.005 433.871 909.936 433.871C908.867 433.871 908 433.005 908 431.936C908 430.867 908.867 430 909.936 430C911.005 430 911.871 430.867 911.871 431.936Z" fill="#125AB3"/>
<path d="M960.262 431.936C960.262 433.005 959.396 433.871 958.327 433.871C957.258 433.871 956.391 433.005 956.391 431.936C956.391 430.867 957.258 430 958.327 430C959.396 430 960.262 430.867 960.262 431.936Z" fill="#125AB3"/>
<path d="M1008.65 431.936C1008.65 433.005 1007.79 433.871 1006.72 433.871C1005.65 433.871 1004.78 433.005 1004.78 431.936C1004.78 430.867 1005.65 430 1006.72 430C1007.79 430 1008.65 430.867 1008.65 431.936Z" fill="#125AB3"/>
<path d="M1057.04 431.936C1057.04 433.005 1056.18 433.871 1055.11 433.871C1054.04 433.871 1053.17 433.005 1053.17 431.936C1053.17 430.867 1054.04 430 1055.11 430C1056.18 430 1057.04 430.867 1057.04 431.936Z" fill="#125AB3"/>
<path d="M1105.44 431.936C1105.44 433.005 1104.57 433.871 1103.5 433.871C1102.43 433.871 1101.56 433.005 1101.56 431.936C1101.56 430.867 1102.43 430 1103.5 430C1104.57 430 1105.44 430.867 1105.44 431.936Z" fill="#125AB3"/>
<path d="M1153.83 431.936C1153.83 433.005 1152.96 433.871 1151.89 433.871C1150.82 433.871 1149.96 433.005 1149.96 431.936C1149.96 430.867 1150.82 430 1151.89 430C1152.96 430 1153.83 430.867 1153.83 431.936Z" fill="#125AB3"/>
<path d="M1202.22 431.936C1202.22 433.005 1201.35 433.871 1200.28 433.871C1199.21 433.871 1198.35 433.005 1198.35 431.936C1198.35 430.867 1199.21 430 1200.28 430C1201.35 430 1202.22 430.867 1202.22 431.936Z" fill="#125AB3"/>
<path d="M1105.44 431.936C1105.44 433.005 1104.57 433.871 1103.5 433.871C1102.43 433.871 1101.56 433.005 1101.56 431.936C1101.56 430.867 1102.43 430 1103.5 430C1104.57 430 1105.44 430.867 1105.44 431.936Z" fill="#125AB3"/>
<path d="M1299 431.936C1299 433.005 1298.13 433.871 1297.06 433.871C1296 433.871 1295.13 433.005 1295.13 431.936C1295.13 430.867 1296 430 1297.06 430C1298.13 430 1299 430.867 1299 431.936Z" fill="#125AB3"/>
<path d="M911.871 474.52C911.871 475.589 911.005 476.455 909.936 476.455C908.867 476.455 908 475.589 908 474.52C908 473.451 908.867 472.584 909.936 472.584C911.005 472.584 911.871 473.451 911.871 474.52Z" fill="#125AB3"/>
<path d="M960.262 474.52C960.262 475.589 959.396 476.456 958.327 476.456C957.258 476.456 956.391 475.589 956.391 474.52C956.391 473.451 957.258 472.584 958.327 472.584C959.396 472.584 960.262 473.451 960.262 474.52Z" fill="#125AB3"/>
<path d="M1008.65 474.52C1008.65 475.589 1007.79 476.456 1006.72 476.456C1005.65 476.456 1004.78 475.589 1004.78 474.52C1004.78 473.451 1005.65 472.584 1006.72 472.584C1007.79 472.584 1008.65 473.451 1008.65 474.52Z" fill="#125AB3"/>
<path d="M1057.04 474.52C1057.04 475.589 1056.18 476.456 1055.11 476.456C1054.04 476.456 1053.17 475.589 1053.17 474.52C1053.17 473.451 1054.04 472.584 1055.11 472.584C1056.18 472.584 1057.04 473.451 1057.04 474.52Z" fill="#125AB3"/>
<path d="M1105.44 474.52C1105.44 475.589 1104.57 476.456 1103.5 476.456C1102.43 476.456 1101.56 475.589 1101.56 474.52C1101.56 473.451 1102.43 472.584 1103.5 472.584C1104.57 472.584 1105.44 473.451 1105.44 474.52Z" fill="#125AB3"/>
<path d="M1153.83 474.52C1153.83 475.589 1152.96 476.456 1151.89 476.456C1150.82 476.456 1149.96 475.589 1149.96 474.52C1149.96 473.451 1150.82 472.584 1151.89 472.584C1152.96 472.584 1153.83 473.451 1153.83 474.52Z" fill="#125AB3"/>
<path d="M1202.22 474.52C1202.22 475.589 1201.35 476.456 1200.28 476.456C1199.21 476.456 1198.35 475.589 1198.35 474.52C1198.35 473.451 1199.21 472.584 1200.28 472.584C1201.35 472.584 1202.22 473.451 1202.22 474.52Z" fill="#125AB3"/>
<path d="M1250.61 474.52C1250.61 475.589 1249.74 476.455 1248.67 476.455C1247.6 476.455 1246.74 475.589 1246.74 474.52C1246.74 473.451 1247.6 472.584 1248.67 472.584C1249.74 472.584 1250.61 473.451 1250.61 474.52Z" fill="#125AB3"/>
<path d="M1250.61 431.936C1250.61 433.005 1249.74 433.871 1248.67 433.871C1247.6 433.871 1246.74 433.005 1246.74 431.936C1246.74 430.867 1247.6 430 1248.67 430C1249.74 430 1250.61 430.867 1250.61 431.936Z" fill="#125AB3"/>
<path d="M1299 474.52C1299 475.589 1298.13 476.456 1297.06 476.456C1296 476.456 1295.13 475.589 1295.13 474.52C1295.13 473.451 1296 472.584 1297.06 472.584C1298.13 472.584 1299 473.451 1299 474.52Z" fill="#125AB3"/>
<path d="M911.871 517.104C911.871 518.173 911.005 519.04 909.936 519.04C908.867 519.04 908 518.173 908 517.104C908 516.035 908.867 515.168 909.936 515.168C911.005 515.168 911.871 516.035 911.871 517.104Z" fill="#125AB3"/>
<path d="M960.262 517.104C960.262 518.173 959.396 519.04 958.327 519.04C957.258 519.04 956.391 518.173 956.391 517.104C956.391 516.035 957.258 515.168 958.327 515.168C959.396 515.168 960.262 516.035 960.262 517.104Z" fill="#125AB3"/>
<path d="M1057.04 517.104C1057.04 518.173 1056.18 519.04 1055.11 519.04C1054.04 519.04 1053.17 518.173 1053.17 517.104C1053.17 516.035 1054.04 515.168 1055.11 515.168C1056.18 515.168 1057.04 516.035 1057.04 517.104Z" fill="#125AB3"/>
<path d="M1105.44 517.104C1105.44 518.173 1104.57 519.04 1103.5 519.04C1102.43 519.04 1101.56 518.173 1101.56 517.104C1101.56 516.035 1102.43 515.168 1103.5 515.168C1104.57 515.168 1105.44 516.035 1105.44 517.104Z" fill="#125AB3"/>
<path d="M1153.83 517.104C1153.83 518.173 1152.96 519.04 1151.89 519.04C1150.82 519.04 1149.96 518.173 1149.96 517.104C1149.96 516.035 1150.82 515.168 1151.89 515.168C1152.96 515.168 1153.83 516.035 1153.83 517.104Z" fill="#125AB3"/>
<path d="M1250.61 517.104C1250.61 518.173 1249.74 519.04 1248.67 519.04C1247.6 519.04 1246.74 518.173 1246.74 517.104C1246.74 516.035 1247.6 515.168 1248.67 515.168C1249.74 515.168 1250.61 516.035 1250.61 517.104Z" fill="#125AB3"/>
<path d="M1299 517.104C1299 518.173 1298.13 519.04 1297.06 519.04C1296 519.04 1295.13 518.173 1295.13 517.104C1295.13 516.035 1296 515.168 1297.06 515.168C1298.13 515.168 1299 516.035 1299 517.104Z" fill="#125AB3"/>
<path d="M1202.22 517.599C1202.22 518.668 1201.35 519.535 1200.28 519.535C1199.21 519.535 1198.35 518.668 1198.35 517.599C1198.35 516.53 1199.21 515.663 1200.28 515.663C1201.35 515.663 1202.22 516.53 1202.22 517.599Z" fill="#125AB3"/>
<path opacity="0.6" fill-rule="evenodd" clip-rule="evenodd" d="M1440 343H1352.68V508H1440V473.211H1387.47V377.789H1440V343Z" fill="#125AB3"/>
<path opacity="0.4" fill-rule="evenodd" clip-rule="evenodd" d="M0 466.794L37.7621 514L187.242 330H0V370.062H102.766L37.7621 450.187L0 402.806V466.794Z" fill="#1473E6"/>
<path opacity="0.4" fill-rule="evenodd" clip-rule="evenodd" d="M1059.72 0L996.809 0C992.38 14.7284 990 30.339 990 46.5C990 135.618 1062.38 208 1151.5 208C1240.62 208 1313 135.618 1313 46.5C1313 30.339 1310.62 14.7284 1306.19 0L1243.29 0C1250.41 13.962 1254.42 29.7603 1254.42 46.5C1254.42 103.402 1208.4 149.425 1151.5 149.425C1094.6 149.425 1048.58 102.983 1048.58 46.5C1048.58 29.8103 1052.59 13.9972 1059.72 0Z" fill="#125AB3"/>
<path opacity="0.3" fill-rule="evenodd" clip-rule="evenodd" d="M1357 47C1357 160.771 1264.77 253 1151 253C1037.23 253 945 160.771 945 47C945 30.8306 946.863 15.0963 950.386 0L948.332 0C944.844 15.1035 943 30.8364 943 47C943 161.875 1036.12 255 1151 255C1265.88 255 1359 161.875 1359 47C1359 30.8364 1357.16 15.1035 1353.67 0L1351.61 0C1355.14 15.0963 1357 30.8306 1357 47Z" fill="#125AB3"/>
<path d="M1444.84 560.959L1429.8 576H1459.98L1444.84 560.861V560.959Z" fill="white"/>
<path d="M1413.38 547L1384.38 576H1407.09L1436.09 547H1413.38Z" fill="white"/>
<path d="M1453.69 547L1465.09 558.403V547H1453.69Z" fill="white"/>
<path d="M1308.39 560.959L1293.45 576H1323.53L1308.39 560.861V560.959Z" fill="white"/>
<path d="M1276.94 547L1247.94 576H1270.74L1299.64 547H1276.94Z" fill="white"/>
<path d="M1362.66 547L1376.72 560.959L1390.67 547H1362.66Z" fill="white"/>
<path d="M1317.24 547L1346.24 576H1368.95L1339.95 547H1317.24Z" fill="white"/>
<path d="M1172.04 560.959L1160.84 572.068L1157 576H1187.08L1172.04 560.861V560.959Z" fill="white"/>
<path d="M1140.49 547L1137.93 549.556L1111.59 576H1134.29L1137.93 572.264L1163.2 547H1140.49Z" fill="white"/>
<path d="M1226.21 547L1227.78 548.573L1240.27 560.959L1254.23 547H1226.21Z" fill="white"/>
<path d="M1180.79 547L1209.79 576H1232.5L1203.5 547H1180.79Z" fill="white"/>
<path d="M1035.6 560.959L1024.39 572.068L1020.56 576H1050.64L1035.6 560.861V560.959Z" fill="white"/>
<path d="M1004.04 547L1001.48 549.556L975.139 576H997.847L1026.75 547H1004.04Z" fill="white"/>
<path d="M1089.76 547L1103.82 560.959L1117.78 547H1089.76Z" fill="white"/>
<path d="M1044.35 547L1073.35 576H1096.05L1067.05 547H1044.35Z" fill="white"/>
<path d="M899.149 560.959L884.108 576H914.19L899.149 560.861V560.959Z" fill="white"/>
<path d="M867.691 547L838.691 576H861.4L890.302 547H867.691Z" fill="white"/>
<path d="M953.315 547L967.373 560.959L981.431 547H953.315Z" fill="white"/>
<path d="M907.898 547L936.898 576H959.607L930.607 547H907.898Z" fill="white"/>
<path d="M762.702 560.959L747.661 576H777.742L762.702 560.861V560.959Z" fill="white"/>
<path d="M731.244 547L702.244 576H724.953L753.953 547H731.244Z" fill="white"/>
<path d="M816.966 547L830.925 560.959L844.983 547H816.966Z" fill="white"/>
<path d="M771.549 547L800.451 576H823.159L794.258 547H771.549Z" fill="white"/>
<path d="M680.519 547L694.478 560.959L708.536 547H680.519Z" fill="white"/>
<path d="M657.81 547H635.102L664.003 576H686.712L657.81 547Z" fill="white"/>
<path d="M626.254 560.959L611.214 576H641.295L626.254 560.861V560.959Z" fill="white"/>
<path d="M594.797 547L565.797 576H588.505L617.505 547H594.797Z" fill="white"/>
<path d="M489.807 560.959L474.766 576H504.847L489.807 560.861V560.959Z" fill="white"/>
<path d="M458.349 547L429.349 576H452.058L481.058 547H458.349Z" fill="white"/>
<path d="M544.071 547L558.03 560.959L572.088 547H544.071Z" fill="white"/>
<path d="M498.654 547L527.654 576H550.264L521.363 547H498.654Z" fill="white"/>
<path d="M353.359 560.959L338.319 576H368.498L353.359 560.861V560.959Z" fill="white"/>
<path d="M321.902 547L292.902 576H315.61L344.61 547H321.902Z" fill="white"/>
<path d="M407.624 547L421.583 560.959L435.641 547H407.624Z" fill="white"/>
<path d="M362.207 547L391.207 576H413.915L384.915 547H362.207Z" fill="white"/>
<path d="M217.01 560.959L201.871 576H232.051L217.01 560.861V560.959Z" fill="white"/>
<path d="M185.454 547L156.553 576H179.261L208.163 547H185.454Z" fill="white"/>
<path d="M271.176 547L285.234 560.959L299.193 547H271.176Z" fill="white"/>
<path d="M225.759 547L254.759 576H277.468L248.468 547H225.759Z" fill="white"/>
<path d="M80.5627 560.959L69.3559 572.068L65.522 576H95.6034L80.5627 560.861V560.959Z" fill="white"/>
<path d="M49.0068 547L20.1051 576H42.8136L71.7153 547H49.0068Z" fill="white"/>
<path d="M134.729 547L136.302 548.573L148.786 560.959L162.746 547H134.729Z" fill="white"/>
<path d="M89.3119 547L118.312 576H141.02L112.02 547H89.3119Z" fill="white"/>
<path d="M-1.71864 547L-0.145763 548.573L12.339 560.959L26.2983 547H-1.71864Z" fill="white"/>
<path d="M-26 547V568.136L-18.1356 576H4.57288L-24.4271 547H-26Z" fill="white"/>
</g>
<defs>
<clipPath id="clip0">
<rect width="1440" height="576" fill="white"/>
</clipPath>
</defs>
</svg>
