<svg width="494" height="468" viewBox="0 0 494 468" fill="none" xmlns="http://www.w3.org/2000/svg">
<g filter="url(#filter0_d)">
<ellipse cx="264.106" cy="229.281" rx="213.894" ry="213.807" fill="#0A8E9B"/>
</g>
<path fill-rule="evenodd" clip-rule="evenodd" d="M185.224 217.646H176.832V215.446H185.224V217.646Z" fill="#E8F1FC"/>
<path fill-rule="evenodd" clip-rule="evenodd" d="M166.99 207.815C162.161 207.815 158.248 211.725 158.248 216.547C158.248 221.369 162.161 225.28 166.99 225.28C171.819 225.28 175.732 221.369 175.732 216.547C175.732 211.725 171.819 207.815 166.99 207.815ZM156.048 216.547C156.048 210.508 160.948 205.615 166.99 205.615C173.032 205.615 177.932 210.508 177.932 216.547C177.932 222.586 173.032 227.48 166.99 227.48C160.948 227.48 156.048 222.586 156.048 216.547Z" fill="#E8F1FC"/>
<path fill-rule="evenodd" clip-rule="evenodd" d="M195.067 207.814C190.238 207.814 186.325 211.725 186.325 216.547C186.325 221.369 190.238 225.279 195.067 225.279C199.897 225.279 203.81 221.369 203.81 216.547C203.81 211.725 199.897 207.814 195.067 207.814ZM184.125 216.547C184.125 210.508 189.025 205.614 195.067 205.614C201.109 205.614 206.01 210.508 206.01 216.547C206.01 222.586 201.109 227.479 195.067 227.479C189.025 227.479 184.125 222.586 184.125 216.547Z" fill="#E8F1FC"/>
<path fill-rule="evenodd" clip-rule="evenodd" d="M321.323 136.861C310.468 136.861 301.67 145.652 301.67 156.493C301.67 167.335 310.468 176.125 321.323 176.125C332.178 176.125 340.975 167.335 340.975 156.493C340.975 145.652 332.178 136.861 321.323 136.861ZM299.47 156.493C299.47 144.434 309.255 134.661 321.323 134.661C333.391 134.661 343.175 144.434 343.175 156.493C343.175 168.552 333.391 178.325 321.323 178.325C309.255 178.325 299.47 168.552 299.47 156.493Z" fill="#092547"/>
<path fill-rule="evenodd" clip-rule="evenodd" d="M302.293 195.138C302.293 184.62 310.798 176.125 321.323 176.125C331.848 176.125 340.353 184.62 340.353 195.138V203.446C340.353 204.053 339.86 204.546 339.253 204.546C338.645 204.546 338.153 204.053 338.153 203.446V195.138C338.153 185.837 330.635 178.325 321.323 178.325C312.011 178.325 304.493 185.837 304.493 195.138V203.446C304.493 204.053 304 204.546 303.393 204.546C302.785 204.546 302.293 204.053 302.293 203.446V195.138Z" fill="#092547"/>
<path fill-rule="evenodd" clip-rule="evenodd" d="M360.885 222.062C359.461 219.605 356.6 218.491 353.99 219.077L353.508 216.931C357.001 216.146 360.853 217.623 362.787 220.957C362.787 220.957 362.788 220.958 362.788 220.959L382.696 254.944C383.497 256.28 383.842 257.775 383.842 259.24C383.842 262.121 382.359 265.011 379.634 266.593C375.61 268.951 370.353 267.647 367.981 263.528C367.98 263.526 367.979 263.525 367.979 263.523L357.684 246.001L359.58 244.887L369.886 262.427C371.635 265.468 375.53 266.449 378.523 264.694L378.528 264.691C380.532 263.529 381.642 261.389 381.642 259.24C381.642 258.116 381.377 257.021 380.807 256.072L380.801 256.061L360.885 222.062Z" fill="#092547"/>
<path fill-rule="evenodd" clip-rule="evenodd" d="M315.461 200.349C315.572 200.946 315.177 201.52 314.58 201.631C297.39 204.814 284.35 219.916 284.35 237.974C284.35 258.403 300.871 274.909 321.323 274.909C341.773 274.909 358.295 258.328 358.295 237.974C358.295 219.842 345.257 204.814 328.065 201.631C327.468 201.52 327.073 200.946 327.184 200.349C327.295 199.751 327.869 199.357 328.466 199.467C346.677 202.839 360.495 218.758 360.495 237.974C360.495 259.542 342.989 277.109 321.323 277.109C299.658 277.109 282.15 259.62 282.15 237.974C282.15 218.835 295.967 202.84 314.179 199.467C314.777 199.357 315.351 199.751 315.461 200.349Z" fill="#E8F1FC"/>
<path fill-rule="evenodd" clip-rule="evenodd" d="M300.381 214.356C300.796 214.799 300.773 215.495 300.33 215.911C294.444 221.423 290.836 229.29 290.836 237.974C290.836 247.389 295.104 255.774 301.809 261.368C302.275 261.757 302.338 262.451 301.949 262.918C301.559 263.384 300.866 263.447 300.399 263.057C293.218 257.066 288.636 248.072 288.636 237.974C288.636 228.67 292.505 220.226 298.826 214.305C299.27 213.89 299.966 213.912 300.381 214.356Z" fill="#E8F1FC"/>
<path fill-rule="evenodd" clip-rule="evenodd" d="M352.986 236.874C353.593 236.874 354.086 237.367 354.086 237.974C354.086 248.548 349.029 257.934 341.219 263.924C340.737 264.294 340.046 264.202 339.676 263.72C339.307 263.238 339.398 262.548 339.88 262.178C347.176 256.582 351.886 247.828 351.886 237.974C351.886 237.367 352.378 236.874 352.986 236.874Z" fill="#E8F1FC"/>
<path d="M321.322 227.608C326.968 227.608 331.622 232.181 331.622 237.898C331.622 243.615 327.045 248.188 321.322 248.188C315.6 248.188 311.022 243.615 311.022 237.898C311.022 232.181 315.676 227.608 321.322 227.608ZM321.322 225.321C314.379 225.321 308.733 230.962 308.733 237.898C308.733 244.834 314.379 250.475 321.322 250.475C328.265 250.475 333.911 244.834 333.911 237.898C333.911 230.962 328.265 225.321 321.322 225.321Z" fill="#E8F1FC"/>
<path fill-rule="evenodd" clip-rule="evenodd" d="M313.509 190.259C313.509 185.984 316.986 182.604 321.17 182.604C325.447 182.604 328.832 186.077 328.832 190.259V211.616L343.54 217.435C343.541 217.436 343.543 217.436 343.544 217.437C347.487 218.961 349.338 223.42 347.833 227.316C346.664 230.371 343.71 232.138 340.702 232.138C339.733 232.138 338.755 231.963 337.854 231.603C337.854 231.602 337.853 231.602 337.853 231.602L318.407 223.908C318.406 223.907 318.405 223.907 318.404 223.906C316.921 223.33 315.725 222.361 314.91 221.135L314.9 221.145C314.753 220.999 314.673 220.846 314.63 220.753C314.609 220.705 314.591 220.658 314.578 220.623C313.856 219.443 313.509 218.101 313.509 216.632V190.259ZM316.584 219.684C316.584 219.684 316.584 219.683 316.584 219.683C316.59 219.694 316.59 219.695 316.584 219.684ZM316.539 219.597L316.55 219.608L316.62 219.724C317.178 220.653 318.051 221.409 319.203 221.857L319.21 221.859L338.669 229.559C339.294 229.809 339.993 229.938 340.702 229.938C342.883 229.938 344.964 228.657 345.779 226.529L345.78 226.525C346.867 223.716 345.516 220.556 342.748 219.488L342.739 219.484L326.632 213.111V190.259C326.632 187.277 324.218 184.804 321.17 184.804C318.183 184.804 315.709 187.218 315.709 190.259V216.632C315.709 217.718 315.956 218.637 316.422 219.421C316.473 219.487 316.512 219.549 316.539 219.597Z" fill="#092547"/>
<path fill-rule="evenodd" clip-rule="evenodd" d="M220.282 124.133C219.015 125.876 218.707 128.823 219.517 131.373C220.318 133.891 222.055 135.63 224.556 135.57C225.163 135.556 225.667 136.036 225.682 136.643C225.697 137.251 225.216 137.755 224.609 137.77C220.777 137.862 218.394 135.104 217.421 132.039C216.457 129.007 216.721 125.286 218.505 122.836L218.508 122.832C224.824 114.235 235.228 108.892 246.708 108.892C261.812 108.892 274.971 118.244 279.862 131.642C281.149 135.155 280.258 138.722 278.243 141.008C276.208 143.318 272.948 144.366 269.749 142.585C269.219 142.29 269.028 141.62 269.323 141.089C269.619 140.559 270.288 140.368 270.819 140.663C272.961 141.855 275.119 141.226 276.593 139.554C278.088 137.857 278.799 135.136 277.797 132.399L277.796 132.398C273.227 119.881 260.903 111.092 246.708 111.092C235.911 111.092 226.174 116.115 220.282 124.133Z" fill="#E8F1FC"/>
<path fill-rule="evenodd" clip-rule="evenodd" d="M247.77 158.64L248.528 161.364C249.232 163.704 247.823 166.228 245.471 166.848L234.957 169.817C232.541 170.518 230.091 169.111 229.472 166.759L228.714 164.035C228.01 161.695 229.419 159.171 231.77 158.551L242.28 155.584C244.621 154.879 247.15 156.286 247.77 158.64ZM245.644 159.204C245.345 158.061 244.07 157.339 242.908 157.692L242.898 157.695L232.348 160.674L232.337 160.677C231.19 160.976 230.47 162.25 230.823 163.408L230.827 163.421L231.596 166.186L231.598 166.195C231.898 167.343 233.104 168.065 234.346 167.703L234.355 167.7L244.894 164.725L244.905 164.722C246.052 164.423 246.772 163.149 246.419 161.991L246.415 161.978L245.646 159.213L245.644 159.204Z" fill="#E8F1FC"/>
<path fill-rule="evenodd" clip-rule="evenodd" d="M219.881 132.786C220.426 133.055 220.65 133.714 220.382 134.259C218.076 138.94 217.265 143.244 217.727 146.37C217.957 147.924 218.492 149.135 219.256 149.982C220.008 150.815 221.04 151.361 222.41 151.506C223.32 151.602 224.258 151.68 225.202 151.758C227.49 151.947 229.81 152.139 231.822 152.605C234.731 153.279 237.359 154.593 238.707 157.556C238.959 158.109 238.715 158.761 238.162 159.013C237.609 159.265 236.957 159.02 236.705 158.467C235.764 156.4 233.929 155.351 231.326 154.748C229.476 154.32 227.418 154.15 225.207 153.968C224.226 153.887 223.215 153.804 222.179 153.694C220.306 153.496 218.763 152.718 217.624 151.457C216.498 150.21 215.826 148.558 215.551 146.692C215.002 142.977 215.983 138.211 218.408 133.287C218.677 132.742 219.336 132.518 219.881 132.786Z" fill="#E8F1FC"/>
<path fill-rule="evenodd" clip-rule="evenodd" d="M237.714 110.338C238.112 109.879 238.807 109.831 239.266 110.229C240.31 111.136 240.982 112.304 241.387 113.196C241.593 113.65 241.738 114.051 241.833 114.341C241.88 114.487 241.915 114.606 241.939 114.691C241.951 114.734 241.96 114.768 241.967 114.793L241.975 114.824L241.977 114.834L241.978 114.837L241.978 114.839C241.979 114.841 241.979 114.84 241.979 114.84C242.049 115.129 241.999 115.435 241.84 115.686C241.681 115.938 241.427 116.115 241.135 116.176C235.822 117.289 232.254 119.1 230.034 120.602C228.923 121.355 228.146 122.032 227.654 122.511C227.408 122.751 227.234 122.941 227.125 123.065C227.07 123.128 227.032 123.174 227.01 123.202C226.998 123.216 226.991 123.225 226.987 123.23C226.985 123.232 226.985 123.233 226.985 123.233L226.985 123.232L226.986 123.231L226.987 123.23C226.789 123.493 226.484 123.654 226.156 123.668C225.827 123.682 225.509 123.548 225.289 123.304L225.289 123.303L225.281 123.295C225.274 123.287 225.262 123.274 225.246 123.257C225.213 123.222 225.162 123.168 225.095 123.1C224.961 122.964 224.764 122.771 224.517 122.551C224.018 122.106 223.345 121.574 222.606 121.172C222.073 120.881 221.876 120.213 222.167 119.68C222.457 119.146 223.125 118.949 223.659 119.24C224.599 119.752 225.413 120.402 225.982 120.91C226.011 120.935 226.039 120.961 226.067 120.986C226.084 120.969 226.101 120.953 226.119 120.936C226.698 120.371 227.575 119.61 228.801 118.781C231.072 117.243 234.526 115.48 239.467 114.296C239.441 114.234 239.413 114.17 239.383 114.106C239.045 113.359 238.534 112.507 237.823 111.89C237.364 111.491 237.316 110.797 237.714 110.338ZM226.108 122.569C226.988 123.229 226.987 123.23 226.987 123.23L226.108 122.569Z" fill="#E8F1FC"/>
<path fill-rule="evenodd" clip-rule="evenodd" d="M254.414 109.959C255.022 109.959 255.514 110.452 255.514 111.059C255.514 112.027 255.369 113.126 255.233 113.954C255.203 114.136 255.173 114.307 255.144 114.464C255.4 114.56 255.703 114.677 256.045 114.814C257.145 115.254 258.656 115.9 260.298 116.728C263.267 118.224 266.819 120.387 269.075 123.089C269.322 122.973 269.614 122.842 269.936 122.707C270.899 122.305 272.218 121.836 273.448 121.704C274.052 121.639 274.594 122.077 274.659 122.681C274.723 123.285 274.286 123.827 273.682 123.891C272.775 123.988 271.692 124.358 270.785 124.737C270.342 124.922 269.962 125.1 269.694 125.232C269.56 125.298 269.455 125.352 269.384 125.388C269.348 125.407 269.322 125.421 269.305 125.43L269.286 125.44L269.283 125.441C268.795 125.706 268.187 125.566 267.864 125.115C266.008 122.526 262.499 120.3 259.308 118.692C257.736 117.9 256.286 117.279 255.228 116.857C254.7 116.646 254.271 116.485 253.977 116.377C253.829 116.323 253.715 116.283 253.639 116.256C253.601 116.243 253.572 116.233 253.554 116.226L253.533 116.219L253.529 116.218C253.529 116.218 253.529 116.218 253.529 116.218C252.995 116.037 252.683 115.483 252.807 114.933L252.808 114.929L252.812 114.912L252.828 114.84C252.842 114.776 252.861 114.681 252.885 114.562C252.934 114.323 252.998 113.986 253.062 113.596C253.193 112.804 253.314 111.845 253.314 111.059C253.314 110.452 253.807 109.959 254.414 109.959Z" fill="#E8F1FC"/>
<path d="M234.425 165.406C235.309 165.406 236.027 164.689 236.027 163.805C236.027 162.921 235.309 162.204 234.425 162.204C233.54 162.204 232.822 162.921 232.822 163.805C232.822 164.689 233.54 165.406 234.425 165.406Z" fill="#E8F1FC"/>
<path fill-rule="evenodd" clip-rule="evenodd" d="M247.395 182.065C248.003 182.065 248.495 182.558 248.495 183.165C248.495 186.518 245.713 189.296 242.36 189.296C240.706 189.296 239.126 188.654 237.996 187.526C237.567 187.097 237.566 186.4 237.996 185.97C238.425 185.541 239.121 185.54 239.551 185.97C240.253 186.67 241.267 187.096 242.36 187.096C244.5 187.096 246.295 185.301 246.295 183.165C246.295 182.558 246.788 182.065 247.395 182.065Z" fill="#092547"/>
<path fill-rule="evenodd" clip-rule="evenodd" d="M246.709 122.374C234.269 122.374 224.233 132.401 224.233 144.826C224.233 145.434 223.741 145.926 223.133 145.926C222.526 145.926 222.033 145.434 222.033 144.826C222.033 131.184 233.056 120.174 246.709 120.174C260.362 120.174 271.385 131.184 271.385 144.826C271.385 147.267 271.331 149.413 270.758 151.611C270.18 153.828 269.093 156.032 267.123 158.67C260.98 166.929 255.072 177.815 253.667 185.493C252.701 191.03 249.061 196.004 242.97 196.004C239.483 196.004 236.344 194.306 234.392 191.762C234.022 191.28 234.113 190.59 234.595 190.22C235.077 189.85 235.767 189.941 236.137 190.423C237.695 192.453 240.202 193.804 242.97 193.804C247.559 193.804 250.633 190.091 251.5 185.111L251.502 185.102C252.997 176.927 259.143 165.711 265.358 157.356L265.36 157.354C267.204 154.885 268.139 152.935 268.629 151.056C269.124 149.157 269.185 147.263 269.185 144.826C269.185 132.401 259.149 122.374 246.709 122.374Z" fill="#092547"/>
<path fill-rule="evenodd" clip-rule="evenodd" d="M246.253 131.977C238.848 131.977 232.856 137.964 232.856 145.359C232.856 145.967 232.364 146.459 231.756 146.459C231.149 146.459 230.656 145.967 230.656 145.359C230.656 136.747 237.635 129.777 246.253 129.777C254.87 129.777 261.849 136.747 261.849 145.359C261.849 148.222 261.111 150.849 259.796 153.146C259.495 153.674 258.823 153.857 258.295 153.555C257.768 153.253 257.585 152.581 257.887 152.054C259.014 150.083 259.649 147.832 259.649 145.359C259.649 137.964 253.657 131.977 246.253 131.977Z" fill="#092547"/>
<g opacity="0.2">
<path d="M264.106 93.0206C338.914 93.0206 400.422 153.95 400.422 229.281C400.422 304.612 339.468 365.541 264.106 365.541C188.745 365.541 127.791 304.058 127.791 229.281C127.791 154.504 188.745 93.0206 264.106 93.0206ZM264.106 15.4741C146.077 15.4741 50.2129 111.299 50.2129 229.281C50.2129 347.262 146.077 443.088 264.106 443.088C382.136 443.088 478 347.262 478 229.281C478 111.299 382.136 15.4741 264.106 15.4741Z" fill="white"/>
</g>
<g filter="url(#filter1_d)">
<ellipse cx="80.2099" cy="42.1999" rx="16.955" ry="16.9481" fill="white"/>
</g>
<path d="M80.2097 36.9851C75.2536 36.9851 71.0801 40.9614 71.0801 42.4606C71.0801 43.9599 75.2536 47.9362 80.2097 47.9362C85.1658 47.9362 89.3393 43.9599 89.3393 42.4606C89.3393 40.9614 85.1658 36.9851 80.2097 36.9851ZM80.2097 46.9584C75.5145 46.9584 72.0583 43.1777 72.0583 42.4606C72.0583 41.7436 75.5145 37.9629 80.2097 37.9629C84.7093 37.9629 88.3611 41.5481 88.3611 42.4606C88.3611 43.3732 84.7093 46.9584 80.2097 46.9584Z" fill="#1473E6"/>
<path d="M80.2097 39.071C78.3186 39.071 76.8187 40.6355 76.8187 42.4606C76.8187 44.2858 78.3186 45.8503 80.2097 45.8503C82.1008 45.8503 83.6007 44.2858 83.6007 42.4606C83.6007 40.6355 82.1008 39.071 80.2097 39.071ZM80.2097 44.8725C78.8402 44.8725 77.7969 43.7643 77.7969 42.4606C77.7969 41.1569 78.9055 40.0488 80.2097 40.0488C81.5139 40.0488 82.6225 41.1569 82.6225 42.4606C82.6225 43.7643 81.5791 44.8725 80.2097 44.8725Z" fill="#1473E6"/>
<g filter="url(#filter2_d)">
<ellipse cx="393.225" cy="44.8073" rx="16.955" ry="16.9481" fill="white"/>
</g>
<path fill-rule="evenodd" clip-rule="evenodd" d="M392.276 42.2513C392.276 39.3636 394.656 36.9851 397.545 36.9851C399.425 36.9851 401.079 37.9957 402.014 39.4326C402.162 39.6598 402.097 39.9637 401.87 40.1114C401.643 40.259 401.339 40.1946 401.191 39.9674C400.424 38.7876 399.068 37.9664 397.545 37.9664C395.198 37.9664 393.258 39.9055 393.258 42.2513C393.258 44.0117 394.313 45.5346 395.897 46.18C396.082 46.2552 396.203 46.4349 396.203 46.6343V48.3184C396.325 50.0821 397.745 51.4426 399.574 51.4426C400.335 51.4426 401.059 51.2068 401.538 50.7815C401.741 50.6015 402.051 50.6197 402.231 50.8223C402.411 51.0248 402.393 51.3349 402.19 51.5149C401.491 52.1364 400.514 52.4239 399.574 52.4239C397.219 52.4239 395.37 50.6516 395.222 48.3668C395.222 48.3563 395.221 48.3458 395.221 48.3352V46.9529C393.443 46.0941 392.276 44.3008 392.276 42.2513ZM387.25 37.6522C387.442 37.4606 387.752 37.4606 387.944 37.6522C389.407 39.114 390.313 41.1344 390.313 43.3634C390.313 45.5924 389.407 47.6128 387.944 49.0747C387.752 49.2663 387.442 49.2663 387.25 49.0747C387.058 48.8831 387.058 48.5724 387.25 48.3808C388.536 47.0951 389.331 45.3212 389.331 43.3634C389.331 41.4056 388.536 39.6318 387.25 38.346C387.058 38.1544 387.058 37.8438 387.25 37.6522ZM398.985 39.1849C399.553 39.4294 400.006 39.8975 400.343 40.3017C400.517 40.5099 400.489 40.8193 400.28 40.9928C400.072 41.1662 399.763 41.1381 399.589 40.9299C399.272 40.5498 398.941 40.2339 398.595 40.0855L398.589 40.083C398.1 39.8658 397.552 39.8079 396.995 39.9178C396.07 40.1384 395.366 40.8425 395.145 41.7669C394.875 43.1359 395.752 44.376 396.922 44.6486C397.245 44.707 397.518 44.8908 397.707 45.1162C397.9 45.3453 398.036 45.6503 398.036 45.9802V48.0736C398.036 48.3445 397.816 48.5642 397.545 48.5642C397.274 48.5642 397.054 48.3445 397.054 48.0736V45.9802C397.054 45.9175 397.025 45.83 396.957 45.7483C396.888 45.6669 396.807 45.6242 396.744 45.6137C396.735 45.6121 396.725 45.6103 396.716 45.6082C395.015 45.2217 393.805 43.4605 394.184 41.5663C394.185 41.5609 394.186 41.5555 394.187 41.5502C394.492 40.2569 395.484 39.265 396.778 38.9607C396.783 38.9594 396.789 38.9583 396.794 38.9572C397.541 38.8078 398.299 38.8809 398.985 39.1849ZM385.745 39.2222C385.936 39.0306 386.247 39.0306 386.439 39.2222C387.509 40.2917 388.153 41.7234 388.153 43.3634C388.153 45.0035 387.509 46.4351 386.439 47.5046C386.247 47.6962 385.936 47.6962 385.745 47.5046C385.553 47.313 385.553 47.0024 385.745 46.8108C386.638 45.9177 387.172 44.7326 387.172 43.3634C387.172 41.9942 386.638 40.8092 385.745 39.9161C385.553 39.7245 385.553 39.4138 385.745 39.2222ZM384.239 40.7268C384.431 40.5352 384.742 40.5352 384.934 40.7268C385.6 41.3934 386.059 42.2986 386.059 43.3634C386.059 44.4282 385.6 45.3334 384.934 46C384.742 46.1916 384.431 46.1916 384.239 46C384.048 45.8084 384.048 45.4977 384.239 45.3061C384.751 44.7952 385.077 44.1303 385.077 43.3634C385.077 42.5965 384.751 41.9317 384.239 41.4207C384.048 41.2291 384.048 40.9184 384.239 40.7268Z" fill="#1473E6"/>
<g filter="url(#filter3_d)">
<ellipse cx="415.397" cy="377.903" rx="16.955" ry="16.9481" fill="white"/>
</g>
<path fill-rule="evenodd" clip-rule="evenodd" d="M409.366 375.1C409.636 375.1 409.855 375.319 409.855 375.589V377.414C409.855 380.403 412.31 382.857 415.3 382.857C418.291 382.857 420.745 380.403 420.745 377.414V375.589C420.745 375.319 420.964 375.1 421.234 375.1C421.505 375.1 421.724 375.319 421.724 375.589V377.414C421.724 380.943 418.831 383.835 415.3 383.835C411.77 383.835 408.877 380.943 408.877 377.414V375.589C408.877 375.319 409.096 375.1 409.366 375.1Z" fill="#1473E6"/>
<path fill-rule="evenodd" clip-rule="evenodd" d="M415.105 369.755C413.484 369.755 412.203 371.035 412.203 372.655V377.609C412.203 379.23 413.484 380.51 415.105 380.51H415.561C417.182 380.51 418.463 379.23 418.463 377.609V372.655C418.463 371.035 417.182 369.755 415.561 369.755H415.105ZM411.225 372.655C411.225 370.495 412.943 368.777 415.105 368.777H415.561C417.722 368.777 419.441 370.495 419.441 372.655V377.609C419.441 379.77 417.722 381.488 415.561 381.488H415.105C412.943 381.488 411.225 379.77 411.225 377.609V372.655Z" fill="#1473E6"/>
<path fill-rule="evenodd" clip-rule="evenodd" d="M414.811 386.475V383.346H415.789V386.475H414.811Z" fill="#1473E6"/>
<path fill-rule="evenodd" clip-rule="evenodd" d="M411.225 386.475C411.225 386.205 411.444 385.986 411.714 385.986H418.952C419.222 385.986 419.441 386.205 419.441 386.475C419.441 386.745 419.222 386.963 418.952 386.963H411.714C411.444 386.963 411.225 386.745 411.225 386.475Z" fill="#1473E6"/>
<g opacity="0.3">
<path fill-rule="evenodd" clip-rule="evenodd" d="M393.032 66.7463C405.086 66.7463 414.857 56.9789 414.857 44.931C414.857 32.8832 405.086 23.1158 393.032 23.1158C380.979 23.1158 371.208 32.8832 371.208 44.931C371.208 56.9789 380.979 66.7463 393.032 66.7463ZM393.032 67.7463C405.638 67.7463 415.857 57.5315 415.857 44.931C415.857 32.3305 405.638 22.1158 393.032 22.1158C380.427 22.1158 370.208 32.3305 370.208 44.931C370.208 57.5315 380.427 67.7463 393.032 67.7463Z" fill="#E8F1FC"/>
<path fill-rule="evenodd" clip-rule="evenodd" d="M393.032 79.1317C411.929 79.1317 427.247 63.8191 427.247 44.931C427.247 26.0429 411.929 10.7303 393.032 10.7303C374.136 10.7303 358.817 26.0429 358.817 44.931C358.817 63.8191 374.136 79.1317 393.032 79.1317ZM393.032 80.1317C412.481 80.1317 428.247 64.3718 428.247 44.931C428.247 25.4902 412.481 9.73035 393.032 9.73035C373.584 9.73035 357.817 25.4902 357.817 44.931C357.817 64.3718 373.584 80.1317 393.032 80.1317Z" fill="#E8F1FC"/>
</g>
<g opacity="0.3">
<path fill-rule="evenodd" clip-rule="evenodd" d="M414.745 399.717C426.798 399.717 436.569 389.95 436.569 377.903C436.569 365.855 426.798 356.088 414.745 356.088C402.691 356.088 392.921 365.855 392.921 377.903C392.921 389.95 402.691 399.717 414.745 399.717ZM414.745 400.717C427.35 400.717 437.569 390.503 437.569 377.903C437.569 365.302 427.35 355.088 414.745 355.088C402.14 355.088 391.921 365.302 391.921 377.903C391.921 390.503 402.14 400.717 414.745 400.717Z" fill="#E8F1FC"/>
<path fill-rule="evenodd" clip-rule="evenodd" d="M414.745 412.103C433.641 412.103 448.959 396.79 448.959 377.903C448.959 359.015 433.641 343.703 414.745 343.703C395.848 343.703 380.53 359.015 380.53 377.903C380.53 396.79 395.848 412.103 414.745 412.103ZM414.745 413.103C434.193 413.103 449.959 397.343 449.959 377.903C449.959 358.462 434.193 342.703 414.745 342.703C395.296 342.703 379.53 358.462 379.53 377.903C379.53 397.343 395.296 413.103 414.745 413.103Z" fill="#E8F1FC"/>
</g>
<g opacity="0.3">
<path fill-rule="evenodd" clip-rule="evenodd" d="M80.2107 64.0146C92.2642 64.0146 102.035 54.2474 102.035 42.1999C102.035 30.1523 92.2642 20.3851 80.2107 20.3851C68.1573 20.3851 58.3867 30.1523 58.3867 42.1999C58.3867 54.2474 68.1573 64.0146 80.2107 64.0146ZM80.2107 65.0146C92.8161 65.0146 103.035 54.8001 103.035 42.1999C103.035 29.5996 92.8161 19.3851 80.2107 19.3851C67.6054 19.3851 57.3867 29.5996 57.3867 42.1999C57.3867 54.8001 67.6054 65.0146 80.2107 65.0146Z" fill="#E8F1FC"/>
<path fill-rule="evenodd" clip-rule="evenodd" d="M80.2103 76.3998C99.1066 76.3998 114.424 61.0876 114.424 42.1999C114.424 23.3122 99.1066 8 80.2103 8C61.3139 8 45.9961 23.3122 45.9961 42.1999C45.9961 61.0876 61.3139 76.3998 80.2103 76.3998ZM80.2103 77.3998C99.6585 77.3998 115.424 61.6403 115.424 42.1999C115.424 22.7595 99.6585 7 80.2103 7C60.762 7 44.9961 22.7595 44.9961 42.1999C44.9961 61.6403 60.762 77.3998 80.2103 77.3998Z" fill="#E8F1FC"/>
</g>
<path fill-rule="evenodd" clip-rule="evenodd" d="M292.8 122.074C293.352 122.074 293.8 121.626 293.8 121.074V67.0737C293.8 56.5803 302.306 48.0737 312.8 48.0737H364.8C365.352 48.0737 365.8 47.626 365.8 47.0737C365.8 46.5214 365.352 46.0737 364.8 46.0737H312.8C301.202 46.0737 291.8 55.4758 291.8 67.0737V121.074C291.8 121.626 292.248 122.074 292.8 122.074Z" fill="#ABCCF5"/>
<path fill-rule="evenodd" clip-rule="evenodd" d="M357.093 39.3666C357.483 38.9761 358.116 38.9761 358.507 39.3666L365.507 46.3666C365.897 46.7571 365.897 47.3903 365.507 47.7808L358.507 54.7808C358.116 55.1714 357.483 55.1714 357.093 54.7808C356.702 54.3903 356.702 53.7571 357.093 53.3666L363.386 47.0737L357.093 40.7808C356.702 40.3903 356.702 39.7571 357.093 39.3666Z" fill="#ABCCF5"/>
<path fill-rule="evenodd" clip-rule="evenodd" d="M292.8 116.074C290.038 116.074 287.8 118.312 287.8 121.074C287.8 123.835 290.038 126.074 292.8 126.074C295.561 126.074 297.8 123.835 297.8 121.074C297.8 118.312 295.561 116.074 292.8 116.074Z" fill="#ABCCF5"/>
<path fill-rule="evenodd" clip-rule="evenodd" d="M313.319 302.288C313.319 301.736 313.767 301.288 314.319 301.288L392.319 301.288C403.917 301.288 413.319 310.69 413.319 322.288V349.288C413.319 349.84 412.872 350.288 412.319 350.288C411.767 350.288 411.319 349.84 411.319 349.288V322.288C411.319 311.795 402.813 303.288 392.319 303.288L314.319 303.288C313.767 303.288 313.319 302.84 313.319 302.288Z" fill="#ABCCF5"/>
<path fill-rule="evenodd" clip-rule="evenodd" d="M404.612 341.581C405.003 341.19 405.636 341.19 406.026 341.581L412.319 347.874L418.612 341.581C419.003 341.19 419.636 341.19 420.026 341.581C420.417 341.972 420.417 342.605 420.026 342.995L413.026 349.995C412.839 350.183 412.585 350.288 412.319 350.288C412.054 350.288 411.8 350.183 411.612 349.995L404.612 342.995C404.222 342.605 404.222 341.972 404.612 341.581Z" fill="#ABCCF5"/>
<path fill-rule="evenodd" clip-rule="evenodd" d="M319.319 302.288C319.319 299.527 317.081 297.288 314.319 297.288C311.558 297.288 309.319 299.527 309.319 302.288C309.319 305.05 311.558 307.288 314.319 307.288C317.081 307.288 319.319 305.05 319.319 302.288Z" fill="#ABCCF5"/>
<path fill-rule="evenodd" clip-rule="evenodd" d="M139.9 231.236C139.9 230.684 139.453 230.236 138.9 230.236H99.9004C89.407 230.236 80.9004 221.73 80.9004 211.236L80.9004 71.2365C80.9004 70.6842 80.4527 70.2365 79.9004 70.2365C79.3481 70.2365 78.9004 70.6842 78.9004 71.2365L78.9004 211.236C78.9004 222.834 88.3024 232.236 99.9004 232.236H138.9C139.453 232.236 139.9 231.789 139.9 231.236Z" fill="#ABCCF5"/>
<path fill-rule="evenodd" clip-rule="evenodd" d="M72.1933 78.9436C71.8028 78.553 71.8028 77.9199 72.1933 77.5293L79.1933 70.5293C79.5838 70.1388 80.217 70.1388 80.6075 70.5293L87.6075 77.5293C87.998 77.9199 87.998 78.553 87.6075 78.9436C87.217 79.3341 86.5838 79.3341 86.1933 78.9436L79.9004 72.6507L73.6075 78.9436C73.217 79.3341 72.5838 79.3341 72.1933 78.9436Z" fill="#ABCCF5"/>
<path fill-rule="evenodd" clip-rule="evenodd" d="M133.9 231.236C133.9 233.998 136.139 236.236 138.9 236.236C141.662 236.236 143.9 233.998 143.9 231.236C143.9 228.475 141.662 226.236 138.9 226.236C136.139 226.236 133.9 228.475 133.9 231.236Z" fill="#ABCCF5"/>
<rect y="324.451" width="116.076" height="26.0739" rx="4" fill="white"/>
<rect x="31.3018" y="336.184" width="58.0382" height="2.60727" fill="#1473E6"/>
<rect x="93.252" y="336.184" width="9.78172" height="2.60727" fill="#C9C9C9"/>
<path d="M16.4692 331.174C15.8147 330.847 15.0948 330.912 14.5712 331.37L10.5136 334.445H7.04505C6.71782 334.445 6.52148 334.707 6.52148 334.968V339.94C6.52148 340.202 6.71782 340.463 7.04505 340.463H10.5136L14.5712 343.603C14.8985 343.865 15.2911 343.996 15.6838 343.996C15.9456 343.996 16.2074 343.931 16.4692 343.8C17.1236 343.473 17.5163 342.884 17.5163 342.164V332.809C17.5163 332.09 17.1236 331.501 16.4692 331.174ZM10.1864 339.417H7.50316V335.426H10.1864V339.417ZM16.5346 342.099C16.5346 342.426 16.3383 342.688 16.0765 342.884C15.8147 343.015 15.422 343.015 15.1603 342.818L11.1026 339.744V335.23L15.1603 332.155C15.422 331.959 15.7493 331.894 16.0765 332.09C16.3383 332.221 16.5346 332.548 16.5346 332.875V342.099Z" fill="#1473E6"/>
<path d="M19.6105 334.903C19.4142 334.707 19.087 334.707 18.8906 334.903C18.6943 335.099 18.6943 335.426 18.8906 335.622C19.4142 336.146 19.676 336.8 19.676 337.52C19.676 338.239 19.4142 338.893 18.8906 339.417C18.6943 339.613 18.6943 339.94 18.8906 340.136C18.9561 340.202 19.087 340.267 19.2179 340.267C19.3487 340.267 19.4796 340.202 19.5451 340.136C20.1995 339.482 20.5922 338.566 20.5922 337.585C20.5922 336.604 20.265 335.557 19.6105 334.903Z" fill="#1473E6"/>
<path d="M21.0503 333.398C20.854 333.202 20.5268 333.202 20.3304 333.398C20.1341 333.594 20.1341 333.922 20.3304 334.118C21.2467 335.034 21.7048 336.211 21.7048 337.454C21.7048 338.697 21.1812 339.875 20.3304 340.79C20.1341 340.987 20.1341 341.314 20.3304 341.51C20.3959 341.575 20.5268 341.641 20.6576 341.641C20.7885 341.641 20.9194 341.575 20.9849 341.51C22.032 340.463 22.6865 339.024 22.6865 337.454C22.6865 335.884 22.0974 334.51 21.0503 333.398Z" fill="#1473E6"/>
<path d="M22.5556 331.894C22.3592 331.697 22.032 331.697 21.8357 331.894C21.6393 332.09 21.6393 332.417 21.8357 332.613C23.1446 333.922 23.8645 335.622 23.8645 337.454C23.8645 339.286 23.1446 340.987 21.8357 342.295C21.6393 342.491 21.6393 342.818 21.8357 343.015C21.9011 343.08 22.032 343.146 22.1629 343.146C22.2938 343.146 22.4247 343.08 22.4901 343.015C23.9954 341.51 24.7807 339.548 24.7807 337.454C24.7807 335.361 24.0608 333.398 22.5556 331.894Z" fill="#1473E6"/>
<rect x="89.8398" y="333.425" width="2.91269" height="8.12582" fill="#5E5E5E" stroke="white"/>
<path fill-rule="evenodd" clip-rule="evenodd" d="M172.758 195.052C172.758 194.445 173.25 193.952 173.858 193.952H188.202C188.809 193.952 189.302 194.445 189.302 195.052C189.302 195.66 188.809 196.152 188.202 196.152H173.858C173.25 196.152 172.758 195.66 172.758 195.052Z" fill="#092547"/>
<path fill-rule="evenodd" clip-rule="evenodd" d="M165.89 199.778C165.89 199.171 166.383 198.678 166.99 198.678H195.068C195.675 198.678 196.168 199.171 196.168 199.778C196.168 200.386 195.675 200.878 195.068 200.878H166.99C166.383 200.878 165.89 200.386 165.89 199.778Z" fill="#092547"/>
<path fill-rule="evenodd" clip-rule="evenodd" d="M195.068 213.344C195.675 213.344 196.168 213.837 196.168 214.444V217.798C196.168 218.405 195.675 218.898 195.068 218.898C194.46 218.898 193.968 218.405 193.968 217.798V214.444C193.968 213.837 194.46 213.344 195.068 213.344Z" fill="#092547"/>
<path fill-rule="evenodd" clip-rule="evenodd" d="M166.99 213.344C167.598 213.344 168.09 213.837 168.09 214.444V217.798C168.09 218.405 167.598 218.898 166.99 218.898C166.383 218.898 165.89 218.405 165.89 217.798V214.444C165.89 213.837 166.383 213.344 166.99 213.344Z" fill="#092547"/>
<path fill-rule="evenodd" clip-rule="evenodd" d="M161.358 244.435L182.662 265.471L167.494 278.186L151.183 252.262L161.358 244.435ZM154.111 252.785L168.013 274.88L179.396 265.338L161.178 247.349L154.111 252.785Z" fill="#092547"/>
<path fill-rule="evenodd" clip-rule="evenodd" d="M200.7 244.435L210.876 252.262L194.564 278.186L179.396 265.471L200.7 244.435ZM200.88 247.349L182.662 265.338L194.045 274.88L207.947 252.785L200.88 247.349Z" fill="#092547"/>
<path fill-rule="evenodd" clip-rule="evenodd" d="M168.951 232.795C170.906 231.385 173.378 230.539 175.688 230.539H186.37C188.681 230.539 191.136 231.386 193.081 232.797C195.025 234.206 196.576 236.268 196.848 238.76L196.956 239.749L195.982 239.956C192.184 240.761 189.429 241.051 187.117 240.629C184.756 240.198 182.976 239.05 181.073 237.274C181.059 237.265 181.049 237.26 181.043 237.258C181.035 237.255 181.029 237.255 181.029 237.255C181.029 237.255 181.023 237.255 181.015 237.258C181.01 237.26 181 237.264 180.988 237.273C179.122 239.049 177.36 240.198 174.999 240.629C172.686 241.051 169.913 240.761 166.078 239.956L165.12 239.755L165.208 238.78C165.436 236.272 166.998 234.203 168.951 232.795ZM167.589 238.017C170.784 238.634 172.919 238.772 174.604 238.464C176.403 238.136 177.8 237.278 179.506 235.646L179.533 235.619L179.562 235.595C180.428 234.875 181.63 234.875 182.496 235.595L182.521 235.616L182.544 235.638C184.291 237.274 185.708 238.135 187.512 238.464C189.192 238.771 191.304 238.634 194.453 238.022C194.033 236.706 193.081 235.513 191.79 234.578C190.187 233.416 188.178 232.739 186.37 232.739H175.688C173.878 232.739 171.849 233.417 170.238 234.579C168.936 235.518 167.988 236.708 167.589 238.017Z" fill="#092547"/>
<path fill-rule="evenodd" clip-rule="evenodd" d="M181 249.8C198.563 249.8 212.8 235.563 212.8 218C212.8 200.437 198.563 186.2 181 186.2C163.437 186.2 149.2 200.437 149.2 218C149.2 235.563 163.437 249.8 181 249.8ZM181 252C199.778 252 215 236.778 215 218C215 199.222 199.778 184 181 184C162.222 184 147 199.222 147 218C147 236.778 162.222 252 181 252Z" fill="#092547"/>
<path fill-rule="evenodd" clip-rule="evenodd" d="M255.8 235.152C260.139 237.781 262.976 242.463 262.976 247.855C262.976 256.088 256.298 262.761 248.054 262.761C239.81 262.761 233.131 256.088 233.131 247.855C233.131 245.795 233.558 243.812 234.335 242.048L232.322 241.161C231.42 243.208 230.931 245.493 230.931 247.855C230.931 257.305 238.597 264.961 248.054 264.961C257.511 264.961 265.176 257.305 265.176 247.855C265.176 241.661 261.909 236.282 256.94 233.27L255.8 235.152Z" fill="#092547"/>
<path fill-rule="evenodd" clip-rule="evenodd" d="M266.039 231.055C265.854 230.477 265.234 230.158 264.656 230.344L224.752 243.149C224.174 243.335 223.856 243.954 224.041 244.533C224.227 245.111 224.846 245.43 225.425 245.244L265.328 232.439C265.907 232.253 266.225 231.634 266.039 231.055Z" fill="#092547"/>
<path fill-rule="evenodd" clip-rule="evenodd" d="M247.027 217.693L231.761 222.573C229.658 223.273 228.33 225.389 228.737 227.625L228.739 227.634L231.718 243.261L259.037 234.497L252.335 220.034C251.421 218.012 249.172 216.982 247.027 217.693ZM247.715 219.782C248.771 219.431 249.872 219.922 250.332 220.943L250.337 220.954L255.994 233.163L233.414 240.406L230.901 227.227C230.7 226.112 231.353 225.03 232.45 224.662L247.715 219.782Z" fill="#092547"/>
<path fill-rule="evenodd" clip-rule="evenodd" d="M254.342 268.371C251.659 264.614 246.115 264.501 243.281 268.145L225.607 290.869C223.702 293.318 223.666 296.738 225.519 299.226L239.6 318.135V342.75C239.6 346.147 242.354 348.9 245.75 348.9C249.147 348.9 251.9 346.147 251.9 342.75V316.8C251.9 315.541 251.497 314.314 250.75 313.301L237.616 295.476L248.545 281.671L254.695 290.28C255.896 291.962 257.788 293.017 259.851 293.154L279.034 294.433C282.323 294.652 285.171 292.172 285.406 288.884C285.639 285.621 283.21 282.775 279.951 282.491L263.4 281.052L254.342 268.371ZM241.544 266.795C245.282 261.989 252.593 262.138 256.132 267.092L264.601 278.948L280.141 280.299C284.598 280.687 287.919 284.579 287.6 289.041C287.279 293.537 283.385 296.928 278.887 296.628L259.704 295.349C256.984 295.168 254.489 293.777 252.905 291.559L248.455 285.329L240.384 295.524L252.521 311.995C253.547 313.388 254.1 315.071 254.1 316.8V342.75C254.1 347.362 250.362 351.1 245.75 351.1C241.139 351.1 237.4 347.362 237.4 342.75V318.865L223.755 300.54C221.31 297.258 221.358 292.749 223.87 289.518L241.544 266.795Z" fill="#092547"/>
<path fill-rule="evenodd" clip-rule="evenodd" d="M277.809 296.823C282.086 296.823 285.56 300.295 285.56 304.564V348.544C285.56 349.052 285.166 349.426 284.676 349.426C284.426 349.426 284.218 349.327 284.091 349.196C283.975 349.078 283.905 348.916 283.935 348.69L283.945 348.617V304.564C283.945 301.212 281.239 298.51 277.886 298.51C274.532 298.51 271.826 301.212 271.826 304.564C271.826 305.072 271.432 305.446 270.943 305.446C270.432 305.446 270.059 305.051 270.059 304.564C270.059 300.295 273.533 296.823 277.809 296.823ZM287.76 304.564C287.76 299.078 283.299 294.623 277.809 294.623C272.32 294.623 267.859 299.078 267.859 304.564C267.859 306.212 269.164 307.646 270.943 307.646C272.589 307.646 274.026 306.344 274.026 304.564C274.026 302.429 275.745 300.71 277.886 300.71C280.026 300.71 281.745 302.429 281.745 304.564V348.479C281.542 350.352 283.086 351.626 284.676 351.626C286.323 351.626 287.76 350.324 287.76 348.544V304.564Z" fill="#E8F1FC"/>
<defs>
<filter id="filter0_d" x="34.2129" y="7.47406" width="459.787" height="459.614" filterUnits="userSpaceOnUse" color-interpolation-filters="sRGB">
<feFlood flood-opacity="0" result="BackgroundImageFix"/>
<feColorMatrix in="SourceAlpha" type="matrix" values="0 0 0 0 0 0 0 0 0 0 0 0 0 0 0 0 0 0 127 0" result="hardAlpha"/>
<feOffset dy="8"/>
<feGaussianBlur stdDeviation="8"/>
<feColorMatrix type="matrix" values="0 0 0 0 0 0 0 0 0 0 0 0 0 0 0 0 0 0 0.25 0"/>
<feBlend mode="normal" in2="BackgroundImageFix" result="effect1_dropShadow"/>
<feBlend mode="normal" in="SourceGraphic" in2="effect1_dropShadow" result="shape"/>
</filter>
<filter id="filter1_d" x="31.2549" y="9.25183" width="97.91" height="97.8962" filterUnits="userSpaceOnUse" color-interpolation-filters="sRGB">
<feFlood flood-opacity="0" result="BackgroundImageFix"/>
<feColorMatrix in="SourceAlpha" type="matrix" values="0 0 0 0 0 0 0 0 0 0 0 0 0 0 0 0 0 0 127 0" result="hardAlpha"/>
<feOffset dy="16"/>
<feGaussianBlur stdDeviation="16"/>
<feColorMatrix type="matrix" values="0 0 0 0 0 0 0 0 0 0 0 0 0 0 0 0 0 0 0.25 0"/>
<feBlend mode="normal" in2="BackgroundImageFix" result="effect1_dropShadow"/>
<feBlend mode="normal" in="SourceGraphic" in2="effect1_dropShadow" result="shape"/>
</filter>
<filter id="filter2_d" x="344.27" y="11.8592" width="97.91" height="97.8962" filterUnits="userSpaceOnUse" color-interpolation-filters="sRGB">
<feFlood flood-opacity="0" result="BackgroundImageFix"/>
<feColorMatrix in="SourceAlpha" type="matrix" values="0 0 0 0 0 0 0 0 0 0 0 0 0 0 0 0 0 0 127 0" result="hardAlpha"/>
<feOffset dy="16"/>
<feGaussianBlur stdDeviation="16"/>
<feColorMatrix type="matrix" values="0 0 0 0 0 0 0 0 0 0 0 0 0 0 0 0 0 0 0.25 0"/>
<feBlend mode="normal" in2="BackgroundImageFix" result="effect1_dropShadow"/>
<feBlend mode="normal" in="SourceGraphic" in2="effect1_dropShadow" result="shape"/>
</filter>
<filter id="filter3_d" x="366.442" y="344.955" width="97.9099" height="97.8962" filterUnits="userSpaceOnUse" color-interpolation-filters="sRGB">
<feFlood flood-opacity="0" result="BackgroundImageFix"/>
<feColorMatrix in="SourceAlpha" type="matrix" values="0 0 0 0 0 0 0 0 0 0 0 0 0 0 0 0 0 0 127 0" result="hardAlpha"/>
<feOffset dy="16"/>
<feGaussianBlur stdDeviation="16"/>
<feColorMatrix type="matrix" values="0 0 0 0 0 0 0 0 0 0 0 0 0 0 0 0 0 0 0.25 0"/>
<feBlend mode="normal" in2="BackgroundImageFix" result="effect1_dropShadow"/>
<feBlend mode="normal" in="SourceGraphic" in2="effect1_dropShadow" result="shape"/>
</filter>
</defs>
</svg>
